<?xml version="1.0" encoding="utf-8"?>
<!-- Generator: Adobe Illustrator 23.0.5, SVG Export Plug-In . SVG Version: 6.00 Build 0)  -->
<svg version="1.1" id="Publicdomainvectors.org" xmlns="http://www.w3.org/2000/svg" xmlns:xlink="http://www.w3.org/1999/xlink"
	 x="0px" y="0px" viewBox="0 0 388.48 477.58" style="enable-background:new 0 0 388.48 477.58;" xml:space="preserve">
<g>
	<path d="M82.93,304.83l0.06,0.2c-0.1-0.11-0.18-0.2-0.16-0.2h0.03H82.93z M162.28,300.48c-1.24-1.99-2.85-4.32-4.97-6.89
		c-2.11-2.57-4.74-5.37-8.46-7.83c-1.87-1.22-4.06-2.32-6.66-2.97c-1.29-0.33-2.69-0.53-4.15-0.52c-0.76-0.02-1.39,0.05-2.27,0.14
		c-0.57,0.08-1.05,0.14-1.76,0.28c-5.05,0.97-10.02,2.83-14.76,5.97c-1.8,1.21-3.54,2.62-5.16,4.24c-1.93-0.98-4.22-2.01-6.33-2.9
		c-2.03-1.45-4.21-3.22-6.54-5.22c-0.73-0.62-1.49-1.31-2.24-1.98c-5.94-8.09-8.21-21.68-4.6-30.92c-4.06,2.88-5.89,13.4-7.91,19.69
		c-0.52-0.43-1.02-0.86-1.56-1.29c-1.61-1.33-3.34-2.59-5.12-3.81c-1.72-1.22-3.73-2.48-5.52-3.54c-0.92-0.54-1.85-1.08-2.78-1.63
		c-0.45-0.29-0.86-0.6-1.25-1c-0.77-0.81-1.48-1.99-2.03-3.52c-1.18-3.03-1.7-6.98-2.18-10.98c-0.45-4.03-0.79-8.21-1.69-12.57
		c-0.25-1.12-0.49-2.13-0.9-3.44c-0.28-0.82-0.83-2.47-1.74-3.72c-0.87-1.27-1.97-2.35-3.12-3.15c-1.15-0.77-2.33-1.35-3.45-1.72
		c-4.52-1.46-8.28-1.2-11.65-0.98c-3.36,0.29-6.3,0.86-8.89,1.37c-2.59,0.49-4.81,1.06-6.64,1.48c-3.67,0.88-5.77,1.38-5.77,1.38
		s2.14,0.44,5.92,0.77c1.88,0.17,4.17,0.37,6.76,0.51c2.59,0.18,5.5,0.4,8.52,0.77c2.98,0.38,6.28,0.98,8.6,2.24
		c1.14,0.64,1.82,1.34,2.08,2.03c0.16,0.37,0.16,0.61,0.43,1.66c0.11,0.58,0.25,1.52,0.34,2.36c0.31,2.94,0.38,6.28,0.57,9.8
		c-5.59,1.56-15.41,9.01-16.32,16.97c1.41-1.11,10.34-7.12,17.67-5.37c0.33,1.45,0.73,2.92,1.28,4.43c0.94,2.46,2.35,5.06,4.57,7.28
		c1.12,1.1,2.42,2.06,3.81,2.79c0.91,0.48,1.82,0.96,2.74,1.44c0.96,0.49,1.77,0.97,2.62,1.45c0.85,0.46,1.7,0.92,2.54,1.43
		c1.69,0.98,3.31,2.01,4.92,3.04c1.65,1.1,3.28,2.19,4.87,3.25c0.99,0.65,1.39,0.87,2.23,1.47c0.78,0.54,1.54,1.07,2.3,1.59
		c3.08,2.11,6.12,4,9.03,5.58c1.84,1.01,3.64,1.86,5.36,2.6c0.44,1.81,0.78,3.9,0.81,5.93c-0.01,0.03-0.02,0.05-0.03,0.08
		c-0.63,1.35-1.67,2.46-3.16,3.42c-3.01,1.91-7.74,2.97-12.9,3.49c-1.29,0.12-2.62,0.08-3.94,0.11l-0.5,0.01l-0.16-0.26
		c-0.01,0-0.01,0.01-0.02,0.01l-1.11,0.32c-0.34-0.03-0.81,0.1-1.05,0.05l-0.77-0.08l-0.77-0.08l-0.96-0.2
		c-0.64-0.16-1.28-0.23-1.93-0.41c-1.31-0.33-2.62-0.67-3.91-1.14c-2.63-0.77-5.13-1.91-7.6-3c-1.16-0.66-2.38-1.23-3.53-1.87
		c-1.08-0.71-2.25-1.33-3.28-2.06c-1-0.76-2.08-1.44-3-2.23c-0.9-0.81-1.88-1.54-2.69-2.37c-0.81-0.85-1.6-1.67-2.37-2.47
		c-0.68-0.89-1.33-1.74-1.96-2.56c-0.71-0.8-1.07-1.74-1.62-2.55c-0.5-0.83-1.05-1.62-1.36-2.44c-0.37-0.8-0.69-1.57-1.05-2.29
		c-0.17-0.36-0.34-0.71-0.5-1.04c-0.14-0.34-0.22-0.67-0.32-0.98c-0.37-1.25-0.77-2.27-1-2.97c-0.26-0.71-0.39-1.08-0.39-1.08
		s-0.08,0.39-0.23,1.11c-0.12,0.72-0.35,1.8-0.52,3.21c-0.05,0.35-0.11,0.73-0.13,1.12c0,0.39,0,0.8,0,1.22
		c0,0.86,0.05,1.79,0.09,2.8c-0.02,1.03,0.27,2.05,0.48,3.18c0.13,0.56,0.25,1.14,0.38,1.73c0.13,0.59,0.27,1.2,0.52,1.78
		c0.45,1.18,0.95,2.41,1.48,3.7c0.64,1.21,1.39,2.42,2.14,3.7c0.77,1.26,1.79,2.36,2.73,3.6c0.95,1.24,2.16,2.22,3.28,3.38
		c1.15,1.13,2.48,2.03,3.77,3.06c1.32,0.97,2.73,1.81,4.15,2.68c2.91,1.59,5.98,2.99,9.19,4.02c1.59,0.53,3.24,0.93,4.89,1.31
		c0.81,0.22,1.69,0.3,2.53,0.44l1.27,0.18l1.48,0.11l1.47,0.09c0.51,0.03,0.78-0.01,1.19-0.02l1.11-0.06l0.35-0.02l0.04-0.01
		l0.08-0.01l0.16-0.02l0.3-0.04l0.61-0.08c1.61-0.23,3.18-0.52,4.7-0.92c2.76-0.68,5.39-1.62,7.84-2.81
		c13.43-2.09,14.83,26.23,13.67,34.5c-1.94,2.35-4.42,5.07-6.73,8.02c-1.71,2.17-3.31,4.54-4.45,6.99c-0.54,1.24-1,2.47-1.24,3.71
		c-0.26,1.22-0.34,2.41-0.25,3.49c0.08,1.07,0.3,2.02,0.59,2.82c0.26,0.81,0.61,1.45,0.89,1.97c0.28,0.52,0.58,0.88,0.74,1.15
		c0.18,0.26,0.27,0.39,0.27,0.39s-0.05-0.16-0.16-0.45c-0.09-0.3-0.28-0.71-0.41-1.26c-0.13-0.56-0.3-1.22-0.34-2
		c-0.08-0.77-0.04-1.63,0.13-2.53c0.16-0.9,0.48-1.83,0.94-2.76c0.45-0.92,1.09-1.83,1.79-2.71c1.47-1.75,3.33-3.4,5.36-4.93
		c4-3.06,8.45-5.68,11.87-8.67c0.41,0.34,0.81,0.68,1.24,0.98c2.59,1.8,5.25,2.9,7.68,3.7c2.45,0.8,4.75,1.37,6.96,1.93
		c1.09,0.25,2.16,0.5,3.21,0.74c0.96,0.22,1.97,0.49,2.94,0.76c1.96,0.54,3.87,1.12,5.69,1.72c3.66,1.18,7,2.35,9.92,3.47
		c2.9,1.16,5.42,2.24,7.37,3.29c1.92,1.07,3.4,2.07,3.89,3.05c0.51,1-0.2,1.66-0.13,1.62c-0.01-0.01,0.15-0.08,0.37-0.33
		c0.23-0.23,0.51-0.77,0.38-1.48c-0.24-1.42-1.45-3.03-3.17-4.68c-1.72-1.67-3.97-3.48-6.69-5.3c-2.7-1.86-5.85-3.78-9.41-5.66
		c-1.78-0.93-3.66-1.88-5.66-2.78c-1.02-0.45-2.04-0.89-3.16-1.32c-1.04-0.38-2.09-0.76-3.16-1.15c-4.13-1.5-8.56-3.07-11.24-5.31
		c-1.34-1.12-2.37-2.49-3.35-4.29c-0.97-1.79-1.78-3.97-2.58-6.23c-0.79-2.27-1.51-4.68-2.21-7.13l-1.07-3.71
		c-0.3-1.15-0.6-2.22-0.78-3.32c-0.83-4.38-0.7-8.63,0.73-12.33c1.38-3.71,4.03-6.91,7.31-9.43c3.28-2.49,7.2-4.36,10.88-5.42
		c0.38-0.13,0.99-0.27,1.52-0.41c0.21-0.04,0.66-0.18,1-0.2c0.72-0.11,1.48-0.13,2.26-0.07c1.56,0.1,3.18,0.61,4.76,1.23
		c3.17,1.3,6.03,3.26,8.53,5.04c2.5,1.83,4.59,3.63,6.37,5.07c3.48,2.99,5.6,4.65,5.6,4.65s-0.32-0.58-0.93-1.67
		C164.43,304.03,163.54,302.44,162.28,300.48 M82.99,305.03l0.06,0.21l0.09,0.14C83.26,305.36,83.12,305.18,82.99,305.03
		 M72.89,160.26c-0.96,8.31,7.28,20.38,7.28,20.38s-1.22-16.68,0.88-20.57c2.9-5.36,2.22-22.13-11.57-22.42
		C76.51,140.21,73.78,152.54,72.89,160.26 M94.99,427.01c-0.01,0-0.02,0-0.03,0C94.96,427,94.97,427.01,94.99,427.01L94.99,427.01z
		 M94.29,426.87c0.27,0.08,0.5,0.13,0.67,0.13C94.76,426.99,94.51,426.85,94.29,426.87 M359.99,222.54
		c-1.83-0.41-4.06-0.96-6.65-1.42c-2.59-0.49-5.54-1.04-8.9-1.3c-3.37-0.19-7.13-0.42-11.64,1.08c-1.13,0.38-2.3,0.97-3.44,1.75
		c-1.14,0.8-2.23,1.89-3.09,3.17c-0.89,1.26-1.43,2.91-1.7,3.73c-0.41,1.31-0.64,2.32-0.88,3.45c-0.86,4.36-1.16,8.54-1.58,12.58
		c-0.44,4-0.93,7.96-2.08,11c-0.53,1.53-1.24,2.72-2,3.54c-0.39,0.39-0.8,0.71-1.25,1.01c-0.92,0.55-1.85,1.1-2.76,1.65
		c-1.78,1.07-3.78,2.34-5.48,3.58c-1.76,1.23-3.49,2.51-5.08,3.85c-0.53,0.43-1.04,0.87-1.55,1.3c-2.08-6.28-3.99-16.78-8.08-19.62
		c3.69,9.2,1.53,22.81-4.34,30.96c-0.74,0.67-1.5,1.37-2.22,2c-2.31,2.02-4.48,3.8-6.5,5.27c-2.1,0.91-4.38,1.95-6.3,2.96
		c-1.63-1.61-3.38-3-5.19-4.2c-4.77-3.1-9.75-4.92-14.81-5.85c-0.71-0.13-1.2-0.18-1.76-0.26c-0.89-0.08-1.52-0.15-2.28-0.12
		c-1.46,0-2.86,0.21-4.14,0.55c-2.6,0.68-4.78,1.79-6.63,3.03c-3.71,2.49-6.31,5.31-8.39,7.9c-2.09,2.58-3.69,4.93-4.91,6.93
		c-1.25,1.97-2.13,3.57-2.74,4.65c-0.6,1.09-0.92,1.68-0.92,1.68s2.1-1.68,5.56-4.7c1.77-1.46,3.85-3.28,6.33-5.13
		c2.5-1.8,5.34-3.78,8.49-5.12c1.58-0.64,3.2-1.16,4.75-1.27c0.78-0.06,1.54-0.06,2.26,0.05c0.33,0.02,0.79,0.16,1,0.2
		c0.53,0.13,1.14,0.26,1.52,0.39c3.69,1.04,7.63,2.87,10.93,5.33c3.31,2.49,5.98,5.67,7.39,9.36c1.45,3.69,1.62,7.93,0.83,12.32
		c-0.17,1.11-0.46,2.17-0.75,3.33l-1.04,3.71c-0.68,2.45-1.37,4.87-2.14,7.14c-0.78,2.27-1.57,4.45-2.52,6.25
		c-0.96,1.81-1.98,3.19-3.31,4.33c-2.67,2.26-7.08,3.87-11.19,5.4c-1.07,0.4-2.11,0.79-3.15,1.18c-1.12,0.44-2.14,0.88-3.15,1.34
		c-2,0.92-3.87,1.88-5.64,2.83c-3.54,1.91-6.67,3.86-9.36,5.74c-2.7,1.84-4.94,3.66-6.64,5.35c-1.7,1.66-2.9,3.29-3.13,4.7
		c-0.12,0.71,0.16,1.25,0.39,1.48c0.23,0.25,0.39,0.31,0.38,0.32c0.07,0.03-0.65-0.62-0.15-1.62c0.49-0.98,1.95-2,3.86-3.08
		c1.95-1.07,4.45-2.17,7.34-3.35c2.91-1.14,6.25-2.34,9.9-3.55c1.81-0.61,3.73-1.2,5.68-1.76c0.97-0.29,1.97-0.56,2.93-0.79
		c1.05-0.25,2.12-0.51,3.2-0.77c2.21-0.57,4.5-1.16,6.95-1.99c2.42-0.81,5.07-1.94,7.64-3.76c0.43-0.3,0.83-0.65,1.23-0.99
		c3.45,2.96,7.92,5.54,11.95,8.56c2.04,1.52,3.92,3.15,5.41,4.89c0.71,0.88,1.36,1.78,1.81,2.7c0.47,0.92,0.8,1.85,0.97,2.75
		c0.17,0.9,0.22,1.76,0.15,2.53c-0.04,0.78-0.2,1.44-0.33,2c-0.12,0.56-0.31,0.97-0.4,1.27c-0.1,0.3-0.16,0.45-0.16,0.45
		s0.09-0.14,0.26-0.39c0.16-0.27,0.45-0.63,0.73-1.15c0.27-0.52,0.62-1.16,0.87-1.97c0.28-0.8,0.49-1.75,0.56-2.83
		c0.08-1.07-0.01-2.26-0.28-3.48c-0.25-1.23-0.72-2.46-1.28-3.7c-1.16-2.43-2.78-4.79-4.51-6.95c-2.33-2.93-4.83-5.63-6.79-7.96
		c-4.64-6.31-0.57-33.51,13.37-34.61c2.46,1.17,5.05,1.06,7.89,0.94c7.33-0.33,12.67-1.65,19.54-3.91
		c6.02-1.97,9.63-5.06,14.88-9.01c10.01-7.56,13.14-17.81,12.94-25.8c-0.02-0.73-0.23-1.09-0.23-1.09s-0.14,0.38-0.39,1.09
		c-0.22,0.7-0.61,1.72-0.97,2.98c-0.1,0.32-0.18,0.65-0.32,0.98c-0.16,0.33-0.32,0.68-0.49,1.04c-0.35,0.71-0.66,1.49-1.03,2.29
		c-0.3,0.82-0.85,1.62-1.34,2.45c-0.55,0.82-0.9,1.76-1.6,2.57c-0.62,0.82-1.27,1.68-1.95,2.58c-0.76,0.81-1.54,1.64-2.34,2.49
		c-0.8,0.83-1.78,1.58-2.67,2.39c-0.91,0.8-1.99,1.49-2.98,2.25c-1.02,0.74-2.18,1.37-3.27,2.09c-1.14,0.65-2.35,1.23-3.51,1.9
		c-2.46,1.1-4.95,2.26-7.58,3.06c-8.89,2.7-19.75,3.64-28.02-1.58c-1.5-0.95-2.55-2.05-3.19-3.39c-0.01-0.03-0.02-0.05-0.03-0.08
		c0.01-2.04,0.33-4.12,0.76-5.94c1.71-0.75,3.5-1.62,5.33-2.64c2.9-1.61,5.92-3.53,8.98-5.66c0.75-0.53,1.51-1.07,2.29-1.61
		c0.84-0.61,1.23-0.84,2.22-1.49c1.58-1.07,3.2-2.17,4.84-3.29c1.6-1.05,3.21-2.08,4.89-3.08c0.84-0.52,1.68-0.99,2.53-1.45
		c0.85-0.48,1.65-0.97,2.61-1.47c0.91-0.49,1.81-0.97,2.72-1.46c1.39-0.75,2.68-1.71,3.79-2.83c2.19-2.24,3.59-4.85,4.51-7.32
		c0.53-1.52,0.93-2.99,1.24-4.44c7.32-1.81,16.29,4.12,17.71,5.22c-0.97-7.96-10.86-15.32-16.46-16.83c0.16-3.52,0.2-6.86,0.49-9.8
		c0.08-0.84,0.22-1.78,0.32-2.36c0.26-1.06,0.26-1.3,0.42-1.66c0.25-0.7,0.92-1.4,2.06-2.05c2.3-1.28,5.61-1.91,8.58-2.31
		c3.02-0.4,5.93-0.64,8.51-0.85c2.59-0.17,4.88-0.39,6.76-0.57c3.77-0.37,5.91-0.83,5.91-0.83S363.66,223.39,359.99,222.54
		 M306.37,159.94c2.14,3.87,1.06,20.56,1.06,20.56s8.14-12.14,7.11-20.44c-0.96-7.71-3.79-20.02,3.22-22.64
		C303.95,137.83,303.42,154.6,306.37,159.94 M294.72,426.99c0.01,0,0.01,0,0.02,0C294.73,426.99,294.72,426.99,294.72,426.99
		L294.72,426.99z M388.45,285.98c-0.02,0.83-3.48,78.5-47.12,88.64c1.17,7.21-0.05,19.32-13.02,35.36
		c-13.8,17.06-22.65,23.6-28.25,25.92c-4.89,12.18-20.55,31.88-52.26,35.64c-3.7,4.46-8.68,6.11-13.76,6.04
		c-3.73-0.06-7.51-1.04-10.87-2.53c-7.77-3.45-15.86-13.18-16.27-26.79c-3.82-4.21-10.49-14.89-3.96-33.77
		c-1.85-1.62-3.67-3.97-4.3-7.17c-0.72-3.67,0.31-7.39,3.04-11.09c-5.27-9.59-3.86-20.35-2.49-30.79c1.21-9.2,2.34-17.89-0.75-25.8
		c-2.17-5.53-3.45-11.59-4.07-17.76c-0.6,5.89-1.81,11.66-3.84,16.96c-3.03,7.93-1.82,16.61-0.54,25.8
		c1.46,10.44,2.96,21.19-2.22,30.82c2.76,3.68,3.81,7.39,3.13,11.07c-0.6,3.21-2.4,5.57-4.24,7.21c6.69,18.82,0.11,29.56-3.67,33.8
		c-0.3,13.61-8.31,23.41-16.05,26.93c-3.35,1.52-7.12,2.54-10.85,2.62c-5.08,0.12-10.07-1.49-13.81-5.92
		c-31.74-3.49-47.57-23.06-52.56-35.2c-5.62-2.28-14.53-8.74-28.47-25.68c-13.11-15.93-14.43-28.03-13.33-35.24
		C4.2,365.26,0.08,287.62,0.05,286.8c-0.6-12.79,4.67-19.96,8.51-25.21c3.31-4.51,3.65-5.41,2.8-7.33
		C3.8,235.99-2.53,172.56,24.59,146.31c-3.38-12.94-2.46-29.86,7.1-41.45c3.53-4.28,5.76-10.32,7.92-16.16
		c2.95-7.99,5.99-16.22,12.63-21.15c1.02-13.93,14.16-27.32,26.84-34.33c4.67-2.58,10.61-7.61,16.35-12.48
		c11.04-9.36,20.56-17.44,28.99-16.84c3.21,0.23,8.19-0.64,13.45-1.55c8.1-1.41,17.29-3,26.37-2.08c10.27,1.04,15.54,5.9,18.17,9.8
		c3.61,5.37,4.5,12.46,2.45,19.47c-2.58,8.82-5.24,31.29-1.35,44.62c3.11,10.64,0.47,37.82-3.4,48.39
		c2.31,4.15,7.69,14.88-1.36,25.12c-1.86,2.1-2.19,3.33-2.15,3.62c0.07,0.68,2.19,2.21,3.09,2.87c1.26,0.91,2.45,1.77,3.4,2.95
		c2.75,3.41,3.09,10.44,2.78,23.94c-0.02,1.1-0.05,2.04-0.05,2.75c-0.06,7.92-2.38,14.63-6.29,18.43
		c10.16,16.88,19.25,56.12,9.6,74.38c2.23,6.49,4.31,15.6,5.22,25.52c0.87-9.6,2.82-18.4,4.93-24.73
		c-9.81-18.17-1.05-57.48,8.97-74.45c-3.94-3.78-6.32-10.46-6.44-18.38c-0.01-0.71-0.04-1.65-0.07-2.75
		c-0.42-13.5-0.14-20.53,2.58-23.97c0.94-1.19,2.13-2.06,3.38-2.98c0.9-0.66,3-2.21,3.07-2.89c0.03-0.29-0.3-1.52-2.18-3.61
		c-9.14-10.16-3.85-20.93-1.58-25.1c-3.96-10.54-6.83-37.7-3.81-48.36c3.78-13.37,0.93-35.8-1.73-44.61
		c-2.11-6.99-1.28-14.09,2.29-19.49c2.59-3.92,7.82-8.82,18.08-9.95c9.08-1,18.28,0.52,26.39,1.85c5.27,0.87,10.25,1.69,13.46,1.43
		c8.43-0.67,18.02,7.33,29.14,16.59c5.78,4.82,11.76,9.8,16.45,12.34c12.75,6.9,26,20.18,27.14,34.1
		c6.68,4.87,9.79,13.08,12.81,21.04c2.2,5.82,4.48,11.84,8.05,16.09c9.66,11.51,10.72,28.41,7.45,41.38
		c27.34,26.02,21.55,89.5,14.16,107.84c-0.84,1.93-0.49,2.81,2.86,7.3C383.62,266.06,388.94,273.19,388.45,285.98 M63.08,69.54
		c1.79-1.36,4.37-2.36,8.09-2.8c27.15-3.24,19.77-16.7,18.37-27.33c-1.78,1.27-3.53,2.42-5.21,3.34
		C72.09,49.52,62.93,61.14,63.08,69.54 M34.26,139.34c6.86-0.5,12.9-2.7,15.96-5.96c1.7-1.81,3.29-4.32,2.37-8.58l0.01,0
		c-2.17-7.95-0.2-12.72,5.77-26.95c2.6-6.2,1.97-10.79,1.42-14.83c-0.33-2.46-0.56-4.97-0.21-7.28c-4.6,2.79-7.11,9.56-9.76,16.73
		c-2.47,6.69-5.02,13.61-9.73,19.32C33.98,119.18,32.81,130.12,34.26,139.34 M58.76,363.93c5.22-0.36,5.75-0.91,6.77-5.82
		c0.5-2.44,0.46-6.93-1.08-8.97c-0.03-0.04-0.06-0.08-0.09-0.11c-1.71-2.19-3.9-5.49-6.12-9.59c-0.89-1.63-1.8-3.39-2.72-5.21
		l-0.03,0.05c0,0-0.32-0.24-0.88-0.67c-0.12-0.07-0.07-0.18-0.38-0.37c-0.35-0.18-0.71-0.43-1.22-0.63
		c-1.13-0.51-2.65-1.02-4.34-1.41c-5.28-1.25-10.53,0.24-15.77,3.09c0,0,0.17-0.41,0.48-1.11c0.13-0.38,0.37-0.79,0.69-1.24
		c0.3-0.47,0.66-1,1.15-1.49c0.25-0.26,0.5-0.52,0.76-0.8c0.29-0.24,0.59-0.49,0.91-0.74c0.62-0.55,1.35-0.96,2.11-1.45
		c1.54-0.88,3.29-1.68,5.1-2.24c0.83-0.27,1.67-0.5,2.5-0.7c-0.2-1.52-0.47-3.51-1.09-5.95c-1.49-1.99-2.97-3.98-4.53-5.84
		c-1.79-2.17-3.64-4.21-5.52-5.95c-1.88-1.76-3.82-3.12-5.63-3.98c-0.45-0.2-0.9-0.37-1.34-0.5c-0.22-0.09-0.43-0.11-0.65-0.18
		l-0.3-0.08l-0.52-0.07c-0.75-0.09-1.17-0.15-1.81-0.2c-0.6-0.06-1.21-0.11-1.81-0.15c-2.42-0.13-4.82-0.12-7.11-0.11
		c-1.22,0-2.42,0-3.58-0.05c0.37,0.01,3.79,17.6,4.23,19.19c3.42,12.55,8.42,26.28,18.08,35.44c4.24,4.01,9.39,6.73,15.18,7.62
		C53.03,364.14,55.91,364.13,58.76,363.93 M98.67,427.62c-0.34-0.19-0.68-0.37-0.99-0.61c-0.88-0.62-1.85-1.36-2.63-2.26
		c-0.43-0.44-0.82-0.92-1.25-1.41c-0.38-0.49-0.7-1.03-1.07-1.57c-0.75-1.09-1.29-2.26-1.83-3.48c-0.53-1.22-0.88-2.48-1.25-3.75
		c-0.26-1.27-0.54-2.56-0.64-3.83c-0.1-1.27-0.17-2.52-0.09-3.74c0.06-2.09,0.43-4.05,0.92-5.77c-0.34-1.77-0.59-3.44-0.76-4.79
		c-2.68-1.26-5.08-2.87-7.16-4.69c-2.95-2.51-5.31-5.41-7.27-8.35c-2.56-3.93-4.34-8.05-5.39-12.02c-0.86,0.63-1.86,1.16-2.91,1.51
		c-1.37,0.5-2.82,0.67-4.19,0.64c-0.81-0.02-1.58-0.15-2.31-0.33l-0.31,0.44c-0.16,0.29-5.88,10.69,10.14,30.16
		c13.96,16.97,21.9,22.26,24.62,23.08c-0.06,0-0.13,0.02-0.19,0.06L98.67,427.62z M181.68,306.39c-0.06-5.03-0.38-10.1-0.81-15.05
		c-0.24-2.44-0.5-4.86-0.81-7.19c-0.64-2.29-1.31-4.38-2.01-6.15l-1.09-2.77l0.52-0.72c-1.18-3.08-2.63-6.03-4.18-8.77
		c-2.09-3.66-4.4-6.97-6.79-9.8c-2.38-2.85-4.82-5.25-7.18-7.15c-2.38-1.85-4.66-3.26-6.67-4.16c-0.67-0.29-1.29-0.53-1.88-0.75
		c-1.23,0.35-2.3,0.92-3.33,1.58c-0.1,0.2-0.18,0.4-0.29,0.6c-0.75,1.35-1.68,2.71-2.74,4c-1.06,1.31-2.24,2.57-3.51,3.79
		c-1.27,1.21-2.61,2.39-4,3.5c-1.38,1.13-2.83,2.17-4.24,3.21c-1.45,0.99-2.85,2-4.27,2.91c-1.37,0.95-2.76,1.8-4.02,2.65
		c-1.3,0.84-2.44,1.64-3.53,2.41c-0.99,0.77-2,1.5-2.64,2.19c-0.7,0.69-1.25,1.36-1.54,2.08c-0.08,0.2-0.16,0.38-0.24,0.56
		c-0.03,0.19-0.06,0.37-0.1,0.57c-0.11,0.39-0.11,0.78-0.07,1.14c0.01,0.74,0.16,1.37,0.27,1.8c0.1,0.46,0.15,0.7,0.15,0.7
		s-0.23-0.09-0.64-0.31c-0.4-0.23-1.09-0.51-1.71-1.2c-0.36-0.32-0.73-0.71-1.03-1.24c-0.17-0.25-0.34-0.54-0.5-0.84
		c-0.11-0.33-0.22-0.66-0.34-1.01c-0.28-0.73-0.26-1.5-0.33-2.38c0.04-0.8,0.13-1.74,0.37-2.56c0.42-1.77,1.25-3.32,2.19-4.91
		c0.98-1.48,2.11-2.98,3.36-4.29c1.25-1.36,2.58-2.61,3.99-3.8c1.39-1.19,2.87-2.28,4.32-3.34c1.49-1.03,2.95-2.03,4.43-2.93
		c1.35-0.86,2.68-1.64,3.98-2.39c0.98-3.29-0.58-6.67-2.92-9.61c-3.59-1.28-7.19-3.12-10.74-5.31c-2.8-1.71-5.56-3.65-8.38-5.74
		c-1.65-1.22-3.41-2.61-5.14-4.1c-7.77,0.34-17.86,4.19-22.67,7.45c-0.28-2.8,4.5-9.68,9.07-12.9c-0.74-0.1-1.5-0.21-2.27-0.35
		c-4.59-0.82-9.76-2.35-15.06-4.57c-2.65-1.11-5.34-2.39-8.02-3.88c-2.7-1.52-5.31-3.13-8.08-5.5l-0.68-0.63
		c-0.09-0.04-0.27-0.11-0.54-0.16c-0.73-0.15-1.84-0.25-3.01-0.22c-2.37,0.08-4.98,0.41-7.51,0.86c-5.09,0.9-9.98,2.11-14.16,3.19
		c-4.18,1.1-7.69,2.11-10.05,3.01c-1.15,0.48-2.08,0.88-2.52,1.31c-0.5,0.4-0.24,0.82-0.24,0.82c0.01-0.01-0.09-0.03-0.22-0.19
		c-0.14-0.15-0.21-0.54-0.08-0.93c0.24-0.79,0.87-1.75,1.81-2.77c1.04-1.17,2.45-2.47,4.18-3.82c3.62-2.83,11.72-6.27,12.72-10.75
		c1-4.49-4.74-12.03-6.72-16.18c-0.07-0.14-0.13-0.28-0.19-0.41c-2.74-6.45-4.15-12.31-4.27-17.39
		c-17.24,21.58-14.65,66.83-9.59,86.58c0.38,0.81,0.88,1.9,1.48,3.19c1.28,2.86,2.91,6.7,4.31,10.64c1.4,3.94,2.56,7.99,2.9,11.16
		c0.18,1.58,0.13,2.92-0.06,3.83c-0.19,0.91-0.49,1.34-0.46,1.35c0,0,0.01-0.13,0.03-0.37c0.03-0.23,0.01-0.58-0.04-1
		c-0.11-0.85-0.47-2.03-1.11-3.35c-1.11-2.36-3.06-5.17-5.21-7.93c-1.07,2.38-2.6,4.48-4,6.39c-3.36,4.58-6.83,9.31-6.41,18.31
		c0,0.14,0.14,2.37,0.54,6c0.14,1.25,3.47,3.41,4.85,3.19c8.22-1.32,14.39,1.3,22.09,5.87c2.96,1.75,11.37,10.57,13.03,13.19
		c0.84,1.3,3.35,4.95,4.07,6.19c0.31,0.52,5.59,5.97,12.43,7.06c5.35,0.85-8.42,1.07-7.71,3.69c0.65,2.58,3.41,7.18,6.95,11.94
		c6.06,4.01,13.01,6.21,20.37-1.53c-1.44,11.72-10.7,15.76-13.8,21.96c0.05,0.14,0.08,0.28,0.13,0.42c1.53,4.4,4.33,9.25,8.1,13.58
		c1.87,2.18,4.02,4.18,6.32,5.87c2.32,1.65,4.78,3.01,7.27,3.68c0.62,0.19,1.21,0.32,1.86,0.43c0.9,0.16,1.47,0.23,2.29,0.34
		c1.53,0.2,3.09,0.39,4.67,0.5c3.15,0.27,6.35,0.42,9.48,0.6c6.28,0.33,12.34,0.7,17.62,1.61c2.64,0.45,5.09,1.04,7.23,1.81
		c2.14,0.78,3.99,1.77,5.27,2.98c1.31,1.17,1.87,2.51,2.01,3.37c0.09,0.43,0.09,0.76,0.08,0.98c-0.01,0.21-0.01,0.33-0.01,0.33
		s-0.2-0.42-0.69-1.02c-0.48-0.61-1.38-1.24-2.63-1.63c-2.55-0.75-6.57-0.55-11.51-0.02c-4.95,0.51-10.83,1.32-17.34,1.69
		c-3.26,0.19-6.68,0.25-10.23,0.08c-1.77-0.11-3.58-0.24-5.42-0.5c-0.16-0.02-0.34-0.05-0.51-0.07c-0.31,0.88-0.52,1.91-0.66,3.06
		c0.11,0.3,0.24,0.57,0.36,0.88c0.35,0.93,0.69,1.9,1.03,2.9c0.32,1,0.65,2.02,0.94,3.05c0.27,1.04,0.6,2.05,0.81,3.1
		c0.3,1,0.48,2.06,0.73,3.04c0.24,0.99,0.39,2.01,0.62,2.93c0.08,0.48,0.21,0.94,0.26,1.42c0.1,0.45,0.22,0.87,0.29,1.32
		c0.14,0.93,0.37,1.71,0.54,2.52c0.14,0.86,0.39,1.52,0.58,2.23c0.09,0.36,0.2,0.68,0.27,1.03c0.12,0.3,0.23,0.58,0.33,0.83
		c0.21,0.46,0.35,0.91,0.47,1.22l0.22,0.03c-0.02,0.12-0.05,0.23-0.08,0.35c0.05,0.13,0.08,0.21,0.08,0.21s-0.05,0.01-0.12,0.01
		c-0.6,2.81-1.87,4.47-3.21,5.66c5.04,9.19,18.34,23.71,44.48,25.83l1.4,0.11c0.12-0.61,0.23-1.25,0.33-1.91
		c0.4-2.74,0.69-5.99,0.63-9.36c-0.02-1.67-0.14-3.39-0.45-4.93c-0.15-0.76-0.37-1.48-0.6-1.94c-0.05-0.1-0.09-0.18-0.14-0.24
		l-0.98,0.25c-1.01,0.17-2.05,0.31-3.11,0.36c-2.08,0.1-4.19-0.03-6.09-0.38c-1.95-0.3-3.68-0.82-5.33-1.32
		c-1.61-0.57-3.14-1.09-4.48-1.71c-2.72-1.19-4.87-2.38-6.36-3.31c-1.5-0.9-2.31-1.54-2.31-1.54s1.03-0.13,2.78-0.14
		c1.75-0.02,4.23,0.04,7.1,0.26c1.44,0.15,2.97,0.23,4.57,0.43c0.8,0.12,1.6,0.13,2.42,0.23c0.82,0.11,1.65,0.17,2.47,0.21
		c0.82,0.06,1.66,0.13,2.47,0.12c0.83,0.02,1.66,0.05,2.5-0.02c0.84,0,1.69-0.05,2.58-0.14l1.33-0.09l0.29-0.03l0.09-0.01l0.18-0.01
		c0.22-0.01,0.67-0.01,0.99,0.03c0.58,0.07,1.17,0.22,1.72,0.46c1.11,0.49,1.92,1.29,2.45,2.02c0.54,0.74,0.85,1.45,1.09,2.1
		c0.47,1.31,0.63,2.48,0.71,3.6c0.18,2.22-0.02,4.23-0.29,6.15c-0.6,3.82-1.68,7.19-2.94,9.96c-0.43,0.93-0.89,1.77-1.35,2.55
		l0.5,0.81c3.11,5.03,9.82,2.67,12.57,1.42c5-2.27,10.08-9.7,9.64-19.01l-0.14-2.9l2.33-1.73c0.27-0.22,7.68-6.52,2.46-22.45
		c-2.53,0.2-5.05,0.06-7.16,4.08c-0.54,4.95-2.03,11.3-5.25,16.63c1.33-6.25-0.05-11.13-1.86-14.54c-0.03,0-0.06,0-0.09,0
		c-2.1,0.1-4.08-0.04-5.94-0.25c-3.73-0.44-7.05-1.29-10.05-2.19c-5.97-1.86-10.62-4.04-13.79-5.74c-3.18-1.66-4.89-2.83-4.89-2.83
		s2.07,0.17,5.58,0.57c1.75,0.18,3.87,0.4,6.31,0.66c2.42,0.25,5.13,0.5,8.04,0.7c2.91,0.18,6.04,0.32,9.18,0.17
		c3.1-0.14,6.4-0.59,8.61-1.67c2.96-1.42,6.19-3.19,8.37-5.16c1.1-0.96,1.9-1.98,2.21-2.73c0.3-0.75,0.36-1.16,0.13-2.04
		c-0.24-0.84-0.9-2.04-1.87-3.21c-0.53-0.66-2-1.82-3.42-2.77c-2.97-1.96-6.3-3.83-9.52-5.59c-3.27-1.78-6.44-3.51-9.44-5.15
		c-3.02-1.66-5.88-3.26-8.5-4.83c-5.24-3.09-9.5-6-12.23-8.44c-1.37-1.21-2.33-2.35-2.79-3.26c-0.49-0.94-0.23-1.52-0.25-1.49
		c0,0,0.02,0.57,0.71,1.16c0.64,0.62,1.84,1.25,3.4,1.95c3.15,1.39,7.89,2.91,13.57,4.81c5.69,1.9,12.35,4.11,19.45,6.97
		c3.54,1.48,7.2,3.03,10.96,5.18c0.6,0.35,1.2,0.71,1.81,1.09c3.66-6.63,2.52-14.93,1.19-24.39c-0.95-6.83-1.99-14.31-1.1-21.83
		c-0.44,0.08-0.88,0.14-1.32,0.17c-0.96,0.07-1.88,0.01-2.73-0.13l-0.63-0.12l-0.16-0.03l-0.2-0.04l-0.05-0.01l-0.21-0.06
		l-0.84-0.23c-0.54-0.15-1.35-0.42-1.99-0.64c-0.63-0.25-1.23-0.5-1.82-0.76c-4.69-2.17-8.2-5.06-11.23-7.66
		c-3.03-2.62-5.54-5.1-7.93-6.96c-2.39-1.85-4.6-3.15-6.64-3.63c-2.03-0.45-3.79-0.25-4.94,0.09c-0.59,0.14-1.02,0.32-1.33,0.42
		c-0.3,0.11-0.46,0.17-0.46,0.17s0.13-0.11,0.38-0.31c0.25-0.19,0.61-0.54,1.16-0.85c1.05-0.66,2.83-1.58,5.39-1.65
		c2.53-0.06,5.59,0.74,8.59,2.25c3.03,1.47,6.17,3.43,9.45,5.44c3.29,1.99,6.81,4,10.49,5.14c0.46,0.12,0.91,0.24,1.38,0.37
		c2.65,0.44,4.14,0.9,5.67-1.75c0.8-1.4,1.49-3.38,1.98-5.5c0.49-2.13,0.82-4.45,1.08-6.82
		C181.65,316.44,181.8,311.42,181.68,306.39 M147.25,442.3c0.4-0.05,0.09-0.18,0.18-0.18h-0.02l-0.52,0.13
		c0.03,0.03,0.04,0.03,0.08,0.06c0.11,0.05,0.21,0.09,0.32,0.1L147.25,442.3z M59.85,201.16l-0.04-0.03
		C59.6,200.93,59.74,201.09,59.85,201.16 M59.97,201.24C59.97,201.24,59.97,201.24,59.97,201.24c0,0-0.02-0.01-0.02-0.01
		C59.96,201.24,59.97,201.24,59.97,201.24 M167.54,204.27l-12.8-8.72c-2.14-0.05-4.08-0.09-4.37-0.04
		c-0.65,0.08-1.24-0.12-1.99-0.17c-0.41-0.05-1.88-0.16-3.19-0.29c-0.35,0.24-0.52,0.34-0.84,0.59c-2.37,1.79-4.41,3.93-5.92,5.95
		c-1.48,2.05-2.46,4.05-2.92,5.81c-0.43,1.76-0.36,3.27-0.14,4.29c0.23,1.02,0.46,1.56,0.46,1.56s-0.1-0.11-0.29-0.31
		c-0.2-0.2-0.47-0.53-0.78-0.99c-0.6-0.92-1.39-2.5-1.54-4.7c-0.15-1.63,0.04-3.55,0.6-5.59c-1.88-6.1,0.75-19,3.37-24.8
		c-0.47-1-0.96-2-1.48-3.01c-1.84-3.56-3.92-7.18-6.24-10.69c-0.16-0.25-0.29-0.43-0.47-0.74l-0.59-1.01
		c-0.39-0.67-0.69-1.42-1.01-2.14c-0.55-1.49-0.97-3.06-1.13-4.63c-0.37-3.14,0.16-6.11,0.87-8.7c0.73-2.61,1.74-4.93,2.76-7.07
		c1.01-2.15,2.06-4.14,2.99-6c0.92-1.86,1.68-3.63,2.07-5.05c0.2-0.72,0.27-1.31,0.26-1.75c0.01-0.16,0-0.16,0.03-0.16l0.05-0.03
		c0.01-0.03-0.07-0.23-0.1-0.33l-0.12-0.38l-0.03-0.1c0.03,0.06-0.15-0.36,0.09,0.19l-0.09-0.23l-0.36-0.93
		c-0.11-0.3-0.19-0.62-0.29-0.93l-0.28,0.34c0,0-0.04-0.06-0.11-0.17c-0.06-0.09-0.1-0.21-0.23-0.4c-0.24-0.37-0.59-0.92-1.06-1.56
		c-0.92-1.28-2.24-2.98-3.73-4.46c-0.37-0.35-0.75-0.75-1.14-1.07c-0.39-0.33-0.78-0.67-1.17-0.94c-0.39-0.3-0.78-0.55-1.17-0.76
		c-0.39-0.25-0.77-0.39-1.13-0.53c-0.37-0.17-0.71-0.22-1.03-0.28c-0.33-0.08-0.62-0.11-0.85-0.08c-0.5,0.03-0.79,0.05-0.79,0.05
		s0.23-0.18,0.64-0.49c0.21-0.18,0.49-0.34,0.85-0.47c0.35-0.15,0.76-0.35,1.22-0.42c0.46-0.11,0.99-0.23,1.53-0.25
		c0.56-0.06,1.14-0.08,1.73-0.05c0.61,0,1.22,0.06,1.85,0.13c0.64,0.06,1.24,0.18,1.88,0.29c0.94,0.17,1.86,0.4,2.74,0.64
		c0.33-1.24,0.76-2.42,1.27-3.5c2-4.16,4.73-7.14,7.29-9.61c5.23-4.84,10.01-7.87,12.98-10.38c1.49-1.23,2.56-2.32,2.99-3.23
		c0.23-0.45,0.33-0.84,0.34-1.1c0.01-0.27-0.01-0.42-0.01-0.42c-0.04-0.01,0.37,0.52,0.18,1.68c-0.19,1.14-0.95,2.64-2.13,4.32
		c-1.19,1.67-2.74,3.58-4.53,5.69c-1.79,2.09-3.78,4.46-5.67,7.1c-1.89,2.61-3.71,5.57-4.63,8.64c-0.95,3.09-0.77,6.05,0.64,8.88
		l0.28,0.53l0.07,0.13l0.21,0.46l0.18,0.36c0.06,0.14,0.1,0.19,0.18,0.42l0.25,0.75c0.16,0.52,0.29,1.04,0.33,1.42
		c0.3,1.69,0.23,3.3,0.02,4.72c-0.41,2.88-1.31,5.24-2.19,7.45c-0.87,2.21-1.81,4.25-2.63,6.21c-0.83,1.96-1.51,3.85-1.99,5.6
		c-0.47,1.75-0.61,3.36-0.49,4.7c0.04,0.68,0.23,1.29,0.42,1.91c0.15,0.3,0.23,0.61,0.41,0.9l0.25,0.45
		c0.09,0.18,0.28,0.46,0.41,0.68c2.43,4.02,4.51,8.13,6.2,12.28c1.67,4.16,3.03,8.32,3.7,12.68c0.14,0.93,0.24,1.88,0.29,2.85
		c0.12,0.5,0.25,0.97,0.51,1.23c0.56,1.32,0.87,0.96,1.2,1.42l1.1,0.34c0.3-0.02,0.59-0.01,0.67,0.17
		c0.02,0.05,19.64,6.14,19.64,6.14c1.02-0.89,3.01-4.28,3.06-10.8c0.01-0.76,0.03-1.76,0.06-2.92c0.08-3.53,0.31-13.97-0.58-17.02
		c-0.27-0.2-0.74-0.54-1.11-0.81c-2.59-1.88-6.92-5.02-7.53-10.49c-0.43-3.94,1.14-7.87,4.82-12.03c4.01-4.54,2.25-8.62-0.27-13.1
		c-0.16-0.29-0.34-0.61-0.51-0.95l-0.13-0.01c0,0,0.02-0.07,0.04-0.18c-0.84-1.66-1.54-3.77-0.46-6.01
		c-0.02-0.03-0.03-0.06-0.05-0.09c-0.21-0.27-0.4-0.56-0.64-0.85c-0.28-0.28-0.56-0.57-0.85-0.85c-0.65-0.55-1.33-1.14-2.14-1.67
		c-1.56-1.09-3.34-2.1-5.01-3.08c-1.67-0.97-3.24-1.94-4.53-2.83c-0.65-0.42-1.23-0.9-1.73-1.27c-0.52-0.37-0.92-0.73-1.26-1.03
		c-0.67-0.59-1.05-0.94-1.05-0.94s0.48,0.2,1.3,0.54c0.41,0.18,0.92,0.39,1.51,0.56c0.59,0.18,1.21,0.42,1.96,0.6
		c1.46,0.4,3.16,0.79,5.04,1.15c1.87,0.38,3.9,0.75,6.02,1.34c1.05,0.26,2.14,0.66,3.22,1.09c0.15,0.07,0.3,0.14,0.45,0.21
		c2.04-10.11,3.74-28.45,1.57-35.88c-1.36-4.65-2.05-10-2.29-15.48c-0.02-0.1-0.03-0.2-0.06-0.32c-0.11-0.72-0.32-1.74-0.63-2.97
		c-0.26-1.25-0.73-2.65-1.17-4.21c-0.56-1.48-1.06-3.17-1.81-4.72c-0.36-0.78-0.68-1.61-1.08-2.36c-0.41-0.76-0.82-1.5-1.21-2.21
		c-0.38-0.75-0.81-1.38-1.23-2c-0.42-0.63-0.82-1.22-1.2-1.77c-0.36-0.57-0.83-1-1.18-1.44c-0.36-0.42-0.68-0.79-0.95-1.09
		c-0.52-0.6-0.82-0.95-0.82-0.95s0.4,0.21,1.11,0.58c0.35,0.18,0.79,0.41,1.27,0.66c0.49,0.27,1.07,0.5,1.63,0.91
		c1.11,0.79,2.62,1.68,3.95,2.82c0.68,0.57,1.39,1.17,2.11,1.77c0.56,0.48,1.08,1.02,1.61,1.54c0.7-8.09,2.03-15.26,3.27-19.5
		c1.14-3.89,0.76-7.65-1.04-10.33c-1.89-2.81-5.93-6.64-10.73-7.13c-2.86-0.29-20.87,0.68-15,9.68c1.39,2.13,2.94,4.51,4.27,7.12
		c1.3,2.6,2.45,5.54,2.42,8.55c0.03,1.48-0.31,2.92-0.83,4.13c-0.28,0.6-0.54,1.18-0.91,1.66c-0.32,0.52-0.67,0.96-1.06,1.35
		c-0.69,0.84-1.49,1.41-2.14,1.95c-0.7,0.47-1.28,0.91-1.81,1.2c-1.05,0.57-1.64,0.9-1.64,0.9s0.49-0.46,1.35-1.27
		c0.43-0.4,0.87-0.96,1.4-1.55c0.46-0.65,1.04-1.35,1.44-2.21c0.24-0.41,0.43-0.85,0.58-1.33c0.19-0.45,0.27-0.95,0.36-1.44
		c0.14-0.99,0.12-2.02-0.18-3.04c-0.5-2.05-1.9-4.04-3.53-5.9c-3.27-3.73-10.97-15.02-15.58-16.74c-2.76-1.03-7.83,0-10.55,0.91
		c-3.76,1.25-11.94,10.26-18.78,16.06c-2.09,1.78-4.21,3.57-6.31,5.28c0.05,1.23,0.21,2.56,0.56,3.89
		c5.01,18.96,3.37,27.88-23.55,35.49c-7.04,1.99-6.92,2.83-6.18,8.32c0.24,1.79,0.51,3.86,0.54,6.2c4.09-0.97,8.74-1.41,13.35-2.04
		c5.11-0.67,10.11-1.6,13.45-3.34c0.84-0.41,1.56-0.88,2.16-1.35c0.6-0.47,1.1-0.93,1.44-1.37c0.74-0.85,0.99-1.47,1.02-1.46
		c-0.04-0.02-0.11,0.65-0.63,1.71c-0.23,0.54-0.62,1.16-1.12,1.82c-0.5,0.66-1.14,1.37-1.91,2.05c-3.07,2.81-8.09,5.18-12.99,7.2
		c-4.9,2.02-9.87,3.87-12.7,5.61c-0.71,0.42-1.65,1.43-1.96,1.99c-0.09,0.2-3,4.22-4.56,6.36c-5.15,12.55-4.99,14.16-2.07,21.66
		c1.87,4.77-0.62,8.66-3.94,12.26c-0.1,0.41-0.19,0.85-0.28,1.34c-0.59,3.12-1.08,7.57-1.12,12.01c-0.07,4.44,0.35,8.91,1.36,12.06
		c0.5,1.57,1.17,2.8,1.79,3.55c0.62,0.76,1.14,1.05,1.12,1.08c0.02-0.03-0.57-0.15-1.43-0.73c-0.87-0.58-1.97-1.65-3-3.14
		c-2.07-2.98-3.9-7.47-5.24-12.05c-0.81-2.78-1.44-5.58-1.93-8.19c-2.73,1.16-5.64,1.96-8.54,2.48c-7.52,6.7-0.64,22.74,1.75,27.68
		c1.33,2.76,2.88,5.49,4.52,8.06c3.48,2.68,7.19,5.07,9.98,6.77c1.73,1.05,6.81,1.74,9.13,2.71c0.73,0.31,1.39,0.62,2.01,0.95
		l-9.93-5.88c5.44-0.69,13.71-7.31,20.05-4.11c-7.25,1.21-10.73,6.69-4.98,13.04l-2.11-1.25c1.23,0.81,2.46,1.69,3.95,2.66
		c2.28,1.47,4.58,2.91,6.84,4.28c4.57,2.74,8.92,5.23,12.71,7.21c1.88,0.99,3.63,1.84,5.2,2.53c-0.77-1.05-1.52-2.14-2.22-3.29
		c-2.21-3.64-3.89-7.88-4.67-12.43c-0.79-4.55-0.52-9.33,0.48-13.83c0.49-2.21,1.25-4.58,2-6.53c0.75-1.93,1.51-3.86,2.27-5.81
		c1.48-3.81,2.85-7.51,3.74-11.13c0.87-3.62,1.18-7.18,0.86-10.73c-0.14-1.78-0.47-3.56-0.92-5.33c-0.48-1.76-0.91-3.22-1.78-5.32
		l-1.18-2.91c-0.42-1.09-0.81-2.19-1.16-3.32c-0.7-2.26-1.24-4.63-1.52-7.09c-0.14-1.25-0.19-2.53-0.16-3.82
		c-0.11-0.13-0.2-0.23-0.32-0.36c-1.62-1.76-4.04-4.05-6.68-6.01c-2.62-1.95-5.54-3.67-7.84-3.86c-0.56-0.03-1.07,0.04-1.5,0.21
		c-0.41,0.19-0.75,0.45-0.97,0.73c-0.47,0.55-0.56,1.02-0.59,1c0.04,0.01-0.04-0.44,0.25-1.19c0.14-0.38,0.4-0.82,0.85-1.23
		c0.45-0.4,1.08-0.71,1.79-0.92c1.43-0.36,3.12-0.32,4.82-0.06c1.72,0.25,3.5,0.72,5.23,1.28c2.3,0.74,4.5,1.65,6.47,2.56
		c0.43-1.14,0.93-2.25,1.53-3.3c1.28-2.25,2.88-4.21,4.58-5.86c0.85-0.82,1.73-1.57,2.61-2.27c0.83-0.67,1.87-1.41,2.49-1.87
		c0.93-0.66,2.06-1.91,2.99-3.21c0.96-1.31,1.82-2.76,2.56-4.26c1.47-2.99,2.45-6.17,2.91-9.29c0.45-3.13,0.31-6.2-0.33-9.06
		c-0.33-1.42-0.83-2.83-1.38-4.08l-0.42-0.91l-0.59-1.07l-0.63-1.12c-0.22-0.44-0.45-0.88-0.63-1.34c-0.77-1.81-1.15-3.82-1.1-5.72
		c0.04-1.9,0.5-3.66,1.1-5.19c1.23-3.08,2.95-5.43,4.53-7.54c3.19-4.18,6.23-7.36,7.83-10.49c0.8-1.54,1.27-3.01,1.34-4.34
		c0.08-1.33-0.22-2.48-0.6-3.36c-0.38-0.88-0.79-1.52-1.07-1.94c-0.31-0.41-0.47-0.62-0.47-0.62s0.2,0.18,0.58,0.52
		c0.36,0.36,0.93,0.9,1.49,1.76c0.56,0.85,1.14,2.04,1.32,3.59c0.21,1.54-0.04,3.36-0.68,5.2c-1.26,3.71-3.86,7.6-6.41,11.91
		c-1.24,2.16-2.46,4.49-3.06,6.89c-0.59,2.41-0.47,4.68,0.72,6.74c0.14,0.26,0.31,0.52,0.48,0.77l0.65,0.91l0.7,1l0.75,1.24
		c0.95,1.66,1.75,3.36,2.37,5.21c1.98-1.44,4.18-2.7,6.29-3.76c3.1-1.59,6.02-3,7.86-5.21c0.45-0.56,0.89-1.14,1.21-1.8l0.64-1.24
		c0.28-0.49,0.55-0.99,0.86-1.42c1.15-1.76,2.76-3.33,4.69-4.26c1.93-0.95,4.15-1.05,5.92-0.53c1.8,0.5,3.2,1.48,4.26,2.5
		c2.14,2.08,3.1,4.29,3.7,5.78c0.58,1.52,0.78,2.42,0.78,2.42s-0.38-0.85-1.22-2.2c-0.85-1.32-2.21-3.22-4.38-4.61
		c-1.06-0.69-2.34-1.21-3.64-1.3c-1.3-0.1-2.59,0.25-3.63,1.06c-1.04,0.81-1.87,1.98-2.43,3.38c-0.16,0.35-0.25,0.68-0.36,1.01
		l-0.38,1.29c-0.31,1.05-0.78,2.07-1.32,3.05c-1.11,1.95-2.62,3.6-4.13,4.96c-1.52,1.35-3.04,2.48-4.39,3.51
		c-2.75,2.05-4.73,3.89-5.81,5.59c-1.09,1.68-1.49,3.21-1.7,4.34c-0.16,1.29-4.13,11.37-4.13,11.37c-0.82,1.98-1.77,3.93-2.99,5.82
		c-1.24,1.9-2.59,3.75-4.75,5.55c-0.93,0.76-1.48,1.2-2.18,1.81c-0.65,0.58-1.26,1.17-1.82,1.76c-1.12,1.19-2.04,2.44-2.72,3.75
		c-1.37,2.61-1.71,5.59-1.29,8.9c0.22,1.65,0.65,3.35,1.23,5.06c0.29,0.86,0.62,1.71,0.97,2.57l0.56,1.29l0.66,1.62
		c0.77,1.76,1.64,4.3,2.26,6.6c0.6,2.3,1.06,4.67,1.27,7.09c0.46,4.84-0.08,9.77-1.21,14.29c-1.12,4.53-2.81,8.64-4.42,12.51
		c-0.79,1.9-1.58,3.79-2.37,5.68c-0.77,1.86-1.32,3.37-1.79,5.11c-0.9,3.38-1.17,6.76-0.82,10.03c0.73,6.55,4.26,12.63,8.66,17.69
		c1.1,1.27,2.25,2.5,3.44,3.67c0.6,0.58,1.2,1.15,1.79,1.71c0.63,0.58,1.26,1.15,1.89,1.72c2.44,2.23,4.9,4.32,7.3,6.18
		c4.81,3.72,9.55,6.66,14.07,8.01c4.25,1.31,8.2,0.91,11.21-0.5c1.02-0.54,2.06-1.17,3.13-1.9c1.67-1.25,2.93-2.58,3.8-3.58
		c0.65-0.74,1.1-1.34,1.41-1.75c0.31-0.41,0.48-0.62,0.48-0.62s-0.11,0.24-0.34,0.7c-0.22,0.46-0.52,1.17-1.04,2.03
		c-0.35,0.62-0.82,1.35-1.36,2.13c-2.74,8.71-1.96,6.99,6.44,15.04c2.74,1.44,5.63,3.29,8.45,5.7c3.17,2.67,6.29,5.94,9.17,9.75
		c0.63,0.85,1.25,1.74,1.87,2.65C185.23,243.98,173.54,208.67,167.54,204.27 M328.53,97.54c6.09,14.18,8.1,18.93,6,26.9l0.01,0
		c-0.89,4.26,0.73,6.76,2.44,8.55c3.09,3.23,9.14,5.39,16.01,5.83c1.37-9.23,0.1-20.16-6.06-27.5c-4.76-5.67-7.37-12.57-9.9-19.24
		c-2.71-7.14-5.27-13.89-9.9-16.65c0.36,2.31,0.16,4.82-0.15,7.28C326.46,86.77,325.87,91.36,328.53,97.54 M315.45,66.53
		c3.73,0.41,6.32,1.39,8.12,2.73c0.08-8.39-9.18-19.94-21.48-26.6c-1.69-0.91-3.45-2.05-5.24-3.3
		C295.54,50,288.27,63.52,315.45,66.53 M208.15,261.93c2.85-3.83,5.94-7.13,9.09-9.83c2.8-2.43,5.67-4.31,8.4-5.77
		c8.33-8.11,9.13-6.41,6.31-15.09c-0.55-0.77-1.03-1.5-1.38-2.11c-0.52-0.85-0.83-1.56-1.06-2.02c-0.22-0.46-0.34-0.7-0.34-0.7
		s0.16,0.21,0.48,0.61c0.32,0.4,0.77,1.01,1.43,1.74c0.88,1,2.15,2.31,3.83,3.55c1.08,0.72,2.12,1.35,3.14,1.88
		c3.02,1.38,6.98,1.75,11.21,0.41c4.51-1.39,9.23-4.37,14.01-8.13c2.39-1.88,4.83-3.99,7.25-6.23c0.62-0.57,1.24-1.15,1.87-1.74
		c0.59-0.57,1.18-1.15,1.78-1.73c1.17-1.18,2.31-2.42,3.4-3.69c4.36-5.11,7.83-11.21,8.51-17.77c0.32-3.27,0.03-6.65-0.9-10.02
		c-0.49-1.74-1.05-3.25-1.83-5.1c-0.8-1.88-1.61-3.76-2.42-5.66c-1.64-3.86-3.36-7.95-4.52-12.47c-1.16-4.51-1.74-9.44-1.33-14.28
		c0.2-2.42,0.63-4.79,1.21-7.1c0.6-2.3,1.45-4.85,2.2-6.62l0.65-1.62l0.55-1.29c0.34-0.86,0.67-1.72,0.95-2.58
		c0.56-1.72,0.97-3.42,1.18-5.07c0.38-3.31,0.02-6.28-1.37-8.88c-0.69-1.31-1.62-2.55-2.75-3.73c-0.56-0.59-1.18-1.18-1.83-1.75
		c-0.7-0.61-1.25-1.05-2.19-1.8c-2.18-1.79-3.53-3.63-4.8-5.51c-1.24-1.88-2.2-3.83-3.04-5.8c0,0-4.06-10.05-4.23-11.33
		c-0.22-1.13-0.63-2.66-1.74-4.33c-1.09-1.69-3.09-3.51-5.85-5.54c-1.36-1.02-2.89-2.14-4.42-3.48c-1.52-1.34-3.04-2.98-4.17-4.92
		c-0.54-0.98-1.03-1.99-1.34-3.04l-0.39-1.29c-0.12-0.33-0.21-0.65-0.37-1c-0.57-1.4-1.42-2.57-2.46-3.36
		c-1.04-0.8-2.34-1.14-3.64-1.03c-1.3,0.09-2.58,0.63-3.63,1.33c-2.15,1.41-3.5,3.32-4.34,4.65c-0.83,1.36-1.2,2.21-1.2,2.21
		s0.2-0.9,0.76-2.42c0.59-1.5,1.54-3.72,3.66-5.81c1.05-1.03,2.45-2.03,4.24-2.54c1.77-0.53,3.98-0.45,5.92,0.48
		c1.94,0.91,3.56,2.47,4.73,4.22c0.31,0.42,0.58,0.92,0.86,1.41l0.65,1.23c0.33,0.66,0.78,1.23,1.23,1.79
		c1.86,2.19,4.79,3.58,7.9,5.14c2.12,1.04,4.33,2.28,6.32,3.71c0.61-1.86,1.39-3.56,2.33-5.23l0.74-1.24l0.69-1l0.64-0.92
		c0.16-0.26,0.33-0.51,0.47-0.78c1.17-2.07,1.27-4.34,0.66-6.74c-0.62-2.39-1.86-4.71-3.12-6.86c-2.58-4.29-5.21-8.15-6.51-11.85
		c-0.66-1.84-0.92-3.65-0.73-5.19c0.17-1.55,0.74-2.75,1.29-3.6c0.55-0.86,1.11-1.4,1.47-1.77c0.38-0.35,0.58-0.52,0.58-0.52
		s-0.16,0.21-0.46,0.63c-0.28,0.42-0.69,1.06-1.06,1.95c-0.37,0.88-0.66,2.03-0.57,3.36c0.09,1.33,0.57,2.79,1.38,4.33
		c1.63,3.11,4.69,6.27,7.92,10.42c1.6,2.1,3.34,4.43,4.59,7.5c0.61,1.53,1.09,3.28,1.15,5.18c0.06,1.89-0.3,3.91-1.06,5.73
		c-0.18,0.46-0.4,0.9-0.62,1.34l-0.62,1.13L272.93,69l-0.42,0.92c-0.55,1.26-1.04,2.67-1.35,4.09c-0.61,2.87-0.73,5.94-0.25,9.07
		c0.48,3.11,1.49,6.29,2.99,9.27c0.75,1.48,1.62,2.93,2.59,4.23c0.94,1.29,2.08,2.54,3.02,3.19c0.63,0.45,1.67,1.19,2.51,1.85
		c0.88,0.69,1.76,1.43,2.63,2.24c1.71,1.64,3.33,3.58,4.63,5.82c0.6,1.04,1.12,2.15,1.56,3.29c1.95-0.93,4.15-1.86,6.44-2.62
		c1.73-0.57,3.5-1.05,5.22-1.32c1.71-0.28,3.4-0.33,4.82,0.02c0.71,0.2,1.34,0.51,1.8,0.9c0.45,0.41,0.71,0.85,0.85,1.22
		c0.29,0.75,0.22,1.2,0.26,1.19c-0.03,0.02-0.13-0.44-0.6-0.99c-0.23-0.28-0.56-0.54-0.97-0.72c-0.43-0.17-0.94-0.22-1.5-0.19
		c-2.29,0.21-5.2,1.95-7.81,3.92c-2.63,1.99-5.03,4.3-6.63,6.06c-0.12,0.13-0.21,0.24-0.32,0.37c0.04,1.29,0,2.57-0.13,3.82
		c-0.25,2.47-0.77,4.84-1.46,7.11c-0.34,1.13-0.73,2.24-1.13,3.33l-1.15,2.92c-0.86,2.1-1.28,3.57-1.74,5.34
		c-0.43,1.78-0.74,3.56-0.87,5.34c-0.29,3.56,0.05,7.11,0.95,10.73c0.92,3.61,2.32,7.31,3.83,11.1c0.78,1.94,1.55,3.86,2.32,5.79
		c0.77,1.95,1.55,4.32,2.06,6.52c1.05,4.5,1.35,9.27,0.6,13.83c-0.74,4.56-2.38,8.81-4.56,12.47c-0.69,1.16-1.42,2.25-2.19,3.31
		c1.56-0.7,3.31-1.57,5.18-2.57c3.77-2.02,8.11-4.54,12.66-7.32c2.24-1.39,4.54-2.85,6.8-4.34c3.29-2.17,5.26-3.89,8.94-5.46
		c1-0.43,2.53-0.81,4.08-1.19c0.18-3.59-2.92-6.34-7.73-7.21c5.08-2.47,11.28,1.28,16.34,3.31c2.03-1.35,4.22-2.9,6.33-4.55
		c1.62-2.58,3.15-5.33,4.46-8.1c2.35-4.96,9.08-21.06,1.51-27.69c-2.91-0.5-5.83-1.27-8.56-2.41c-0.46,2.62-1.07,5.42-1.86,8.21
		c-1.29,4.6-3.09,9.1-5.13,12.1c-1.02,1.5-2.11,2.58-2.98,3.16c-0.86,0.59-1.45,0.71-1.43,0.74c-0.02-0.03,0.5-0.32,1.11-1.09
		c0.61-0.76,1.27-1.99,1.76-3.57c0.98-3.17,1.37-7.64,1.26-12.08c-0.08-4.44-0.61-8.88-1.23-12c-0.09-0.48-0.19-0.92-0.29-1.34
		c-3.35-3.57-5.88-7.44-4.05-12.22c2.86-7.52,3.01-9.13-2.25-21.64c-1.57-2.12-4.51-6.12-4.61-6.32c-0.31-0.56-1.26-1.56-1.97-1.98
		c-2.85-1.71-7.83-3.52-12.75-5.5c-4.93-1.98-9.96-4.3-13.06-7.09c-0.78-0.67-1.42-1.37-1.93-2.03c-0.51-0.66-0.9-1.27-1.14-1.81
		c-0.53-1.05-0.61-1.72-0.64-1.7c0.03-0.02,0.29,0.61,1.03,1.45c0.35,0.43,0.86,0.9,1.46,1.36c0.61,0.46,1.33,0.93,2.17,1.34
		c3.35,1.71,8.37,2.6,13.48,3.23c4.61,0.59,9.26,0.99,13.37,1.92c0.01-2.34,0.26-4.41,0.49-6.2c0.7-5.49,0.81-6.34-6.25-8.27
		c-26.99-7.39-28.7-16.28-23.85-35.29c0.34-1.34,0.49-2.67,0.53-3.9c-2.12-1.7-4.25-3.47-6.36-5.23
		c-6.89-5.74-17.2-15.59-21.15-15.29c-2.88,0.22-6.57-0.07-9.33,0.99c-4.59,1.77-11.21,10.69-14.44,14.46
		c-1.61,1.87-3,3.88-3.48,5.93c-0.29,1.03-0.31,2.05-0.15,3.04c0.09,0.49,0.18,0.99,0.38,1.44c0.15,0.47,0.34,0.92,0.59,1.32
		c0.41,0.86,0.99,1.55,1.46,2.2c0.54,0.58,0.99,1.15,1.42,1.54c0.87,0.8,1.36,1.26,1.36,1.26s-0.6-0.32-1.65-0.89
		c-0.53-0.28-1.11-0.72-1.82-1.18c-0.65-0.54-1.45-1.1-2.15-1.94c-0.39-0.38-0.74-0.83-1.07-1.34c-0.37-0.48-0.64-1.05-0.92-1.65
		c-0.53-1.21-0.88-2.64-0.87-4.13c-0.06-3.01,1.07-5.96,2.35-8.57c1.31-2.62,2.79-5.04,4.21-7.15c5.53-8.2-12.48-9.43-15.34-9.11
		c-4.8,0.53-8.54,3.95-10.41,6.78c-1.78,2.69-2.13,6.46-0.96,10.34c1.28,4.23,2.67,11.39,3.44,19.48c0.53-0.53,1.04-1.07,1.6-1.56
		c0.71-0.61,1.41-1.21,2.09-1.78c1.32-1.16,2.82-2.05,3.93-2.86c0.57-0.41,1.15-0.64,1.63-0.92c0.49-0.26,0.92-0.49,1.27-0.67
		c0.71-0.37,1.11-0.59,1.11-0.59s-0.3,0.35-0.82,0.95c-0.26,0.3-0.58,0.67-0.94,1.09c-0.34,0.43-0.81,0.87-1.17,1.44
		c-0.37,0.55-0.76,1.15-1.18,1.78c-0.42,0.62-0.84,1.25-1.22,2.01c-0.38,0.72-0.78,1.47-1.19,2.23c-0.39,0.76-0.7,1.59-1.06,2.37
		c-0.73,1.55-1.22,3.24-1.76,4.73c-0.43,1.57-0.89,2.97-1.13,4.22c-0.3,1.23-0.5,2.26-0.6,2.97c-0.02,0.12-0.04,0.21-0.06,0.32
		c-0.2,5.49-0.84,10.84-2.16,15.5c-2.11,7.45-0.25,25.78,1.88,35.87c0.15-0.07,0.29-0.14,0.44-0.21c1.08-0.43,2.16-0.84,3.21-1.12
		c2.12-0.61,4.14-0.99,6.01-1.39c1.88-0.38,3.57-0.79,5.03-1.2c0.75-0.19,1.36-0.43,1.95-0.62c0.59-0.18,1.09-0.39,1.5-0.57
		c0.83-0.35,1.3-0.55,1.3-0.55s-0.38,0.34-1.05,0.94c-0.33,0.3-0.73,0.67-1.25,1.04c-0.5,0.38-1.08,0.86-1.73,1.28
		c-1.28,0.9-2.84,1.89-4.51,2.87c-1.66,1-3.43,2.02-4.98,3.13c-0.81,0.53-1.48,1.13-2.13,1.69c-0.28,0.29-0.57,0.58-0.85,0.86
		c-0.24,0.29-0.42,0.59-0.63,0.86c-0.03,0.03-0.03,0.06-0.05,0.09c1.11,2.23,0.42,4.35-0.41,6.01c0.03,0.11,0.04,0.17,0.04,0.17
		l-0.13,0.01c-0.17,0.34-0.34,0.66-0.51,0.95c-2.48,4.5-4.21,8.6-0.15,13.1c3.71,4.13,5.32,8.05,4.92,11.99
		c-0.56,5.48-4.86,8.65-7.44,10.55c-0.37,0.27-0.83,0.61-1.1,0.82c-0.87,3.07-0.54,13.5-0.43,17.03c0.04,1.16,0.07,2.16,0.08,2.92
		c0.11,6.52,2.13,9.89,3.15,10.77c0,0,19.56-6.26,19.58-6.31c0.07-0.18,0.36-0.18,0.67-0.17l1.1-0.35c0.32-0.46,0.63-0.1,1.18-1.42
		c0.25-0.25,0.38-0.72,0.5-1.23c0.04-0.97,0.13-1.92,0.26-2.85c0.63-4.36,1.95-8.53,3.59-12.71c1.67-4.16,3.71-8.29,6.1-12.33
		c0.13-0.23,0.31-0.51,0.4-0.68l0.25-0.45c0.17-0.3,0.26-0.61,0.4-0.9c0.19-0.62,0.37-1.23,0.4-1.92c0.11-1.34-0.04-2.94-0.53-4.69
		c-0.5-1.75-1.2-3.63-2.04-5.59c-0.84-1.95-1.79-3.98-2.69-6.19c-0.89-2.2-1.82-4.55-2.25-7.43c-0.22-1.42-0.31-3.02-0.03-4.72
		c0.04-0.38,0.17-0.9,0.32-1.42l0.24-0.75c0.08-0.23,0.12-0.27,0.18-0.42l0.17-0.36l0.21-0.46l0.07-0.13l0.28-0.53
		c1.38-2.84,1.54-5.8,0.56-8.89c-0.95-3.07-2.79-6.01-4.7-8.6c-1.91-2.63-3.92-4.97-5.73-7.05c-1.8-2.1-3.37-4-4.58-5.65
		c-1.19-1.67-1.97-3.17-2.16-4.3c-0.2-1.16,0.2-1.69,0.16-1.68c0,0-0.02,0.14,0,0.42c0.01,0.26,0.12,0.65,0.34,1.1
		c0.44,0.91,1.52,1.98,3.02,3.2c3,2.49,7.79,5.47,13.07,10.27c2.58,2.45,5.34,5.4,7.37,9.55c0.52,1.07,0.96,2.25,1.3,3.49
		c0.88-0.25,1.79-0.48,2.74-0.66c0.64-0.11,1.23-0.24,1.87-0.3c0.63-0.08,1.23-0.14,1.84-0.15c0.59-0.04,1.18-0.02,1.74,0.04
		c0.54,0.02,1.07,0.13,1.53,0.24c0.46,0.08,0.88,0.26,1.22,0.41c0.35,0.13,0.64,0.29,0.85,0.47c0.41,0.31,0.64,0.48,0.64,0.48
		s-0.29-0.01-0.79-0.04c-0.23-0.03-0.52,0-0.85,0.08c-0.32,0.07-0.66,0.12-1.03,0.29c-0.37,0.15-0.74,0.29-1.13,0.54
		c-0.38,0.21-0.77,0.46-1.17,0.77c-0.39,0.27-0.78,0.61-1.17,0.95c-0.38,0.31-0.76,0.72-1.13,1.08c-1.48,1.49-2.78,3.2-3.69,4.49
		c-0.46,0.64-0.81,1.19-1.05,1.57c-0.13,0.19-0.17,0.31-0.23,0.41c-0.07,0.11-0.1,0.17-0.1,0.17l-0.28-0.34
		c-0.09,0.31-0.17,0.63-0.28,0.94l-0.35,0.93l-0.09,0.23c0.23-0.55,0.06-0.12,0.09-0.19l-0.03,0.1l-0.12,0.38
		c-0.03,0.11-0.11,0.31-0.09,0.34l0.05,0.03c0.03,0,0.02,0,0.03,0.16c-0.01,0.44,0.07,1.03,0.28,1.74c0.4,1.41,1.18,3.18,2.11,5.03
		c0.95,1.85,2.01,3.83,3.04,5.98c1.04,2.13,2.07,4.45,2.82,7.05c0.74,2.59,1.29,5.55,0.95,8.69c-0.14,1.57-0.55,3.14-1.09,4.64
		c-0.31,0.73-0.61,1.47-0.99,2.15l-0.58,1.01c-0.18,0.32-0.3,0.5-0.47,0.75c-2.29,3.53-4.34,7.17-6.15,10.75
		c-0.51,1.01-0.99,2.02-1.46,3.03c2.67,5.77,5.41,18.65,3.58,24.77c0.58,2.03,0.79,3.95,0.65,5.58c-0.13,2.21-0.91,3.79-1.5,4.72
		c-0.31,0.47-0.57,0.79-0.78,1c-0.19,0.21-0.28,0.31-0.28,0.31s0.22-0.55,0.44-1.57c0.21-1.02,0.26-2.53-0.18-4.29
		c-0.47-1.76-1.47-3.74-2.96-5.78c-1.53-2-3.58-4.13-5.97-5.9c-0.32-0.24-0.48-0.34-0.84-0.58c-1.31,0.14-2.77,0.26-3.19,0.31
		c-0.75,0.06-1.34,0.26-1.99,0.18c-0.29-0.05-2.23,0.01-4.37,0.07l-12.73,8.83c-5.96,4.45-17.35,39.86-13.96,59.71
		C206.91,263.68,207.52,262.79,208.15,261.93 M327.95,200.82l-0.04,0.03C328.03,200.78,328.17,200.62,327.95,200.82 M327.79,200.93
		C327.8,200.93,327.79,200.93,327.79,200.93c0.01,0,0.02,0,0.02-0.01C327.81,200.93,327.79,200.93,327.79,200.93 M329.72,373.32
		l-0.31-0.44c-0.73,0.19-1.49,0.32-2.31,0.35c-1.37,0.04-2.82-0.12-4.2-0.61c-1.06-0.35-2.06-0.87-2.92-1.49
		c-1.02,3.98-2.76,8.11-5.29,12.06c-1.93,2.96-4.28,5.87-7.2,8.42c-2.06,1.83-4.46,3.46-7.12,4.75c-0.17,1.35-0.4,3.03-0.72,4.79
		c0.5,1.72,0.89,3.67,0.97,5.76c0.09,1.21,0.03,2.46-0.06,3.74c-0.09,1.27-0.36,2.56-0.61,3.83c-0.36,1.28-0.69,2.54-1.22,3.77
		c-0.53,1.22-1.06,2.39-1.8,3.49c-0.36,0.54-0.68,1.09-1.06,1.58c-0.42,0.49-0.81,0.98-1.23,1.42c-0.78,0.9-1.74,1.65-2.62,2.29
		c-0.31,0.24-0.65,0.43-0.99,0.62l4.56-0.72c-0.06-0.05-0.12-0.06-0.19-0.06c2.72-0.84,10.61-6.2,24.43-23.29
		C335.69,383.96,329.88,373.6,329.72,373.32 M375.92,300.75c-1.17,0.05-2.36,0.08-3.58,0.08c-7.3,0.05-13.2-3.59-18.78,1.72
		c-1.87,1.75-4.06,7.52-5.83,9.71c-1.54,1.87-3.01,3.87-4.48,5.88c-1.7,6.95,1.69,5.72,6.59,8.83c0.76,0.48,1.5,0.89,2.12,1.43
		c0.32,0.25,0.62,0.5,0.91,0.73c0.26,0.27,0.52,0.54,0.76,0.79c0.5,0.48,0.87,1.01,1.17,1.48c0.33,0.44,0.57,0.85,0.7,1.23
		c0.31,0.71,0.48,1.11,0.48,1.11c-4.63-3.26-9.44-5.9-15.79-2.95c-1.69,0.4-3.2,0.93-4.33,1.45c-0.51,0.2-0.86,0.46-1.22,0.64
		c-0.31,0.19-0.26,0.29-0.38,0.37c-0.55,0.43-0.88,0.68-0.88,0.68l-0.03-0.05c-0.9,1.82-1.8,3.6-2.67,5.23
		c-2.19,4.11-4.35,7.43-6.04,9.64c-0.03,0.04-0.06,0.08-0.09,0.12c-1.52,2.05-1.53,6.54-1,8.98c1.05,4.9,1.6,5.44,6.82,5.76
		c2.86,0.17,5.74,0.16,8.57-0.3c5.79-0.93,10.91-3.7,15.11-7.74c9.59-9.24,14.46-23.01,17.78-35.59
		C372.28,318.38,375.54,300.77,375.92,300.75 M371,267.36c-1.42-1.9-2.97-3.99-4.05-6.36c-2.13,2.78-4.05,5.61-5.14,7.98
		c-0.63,1.33-0.98,2.5-1.09,3.36c-0.04,0.42-0.06,0.77-0.03,1c0.02,0.24,0.03,0.37,0.03,0.37c0.03-0.01-0.27-0.44-0.47-1.34
		c-0.19-0.9-0.25-2.24-0.09-3.82c0.31-3.17,1.44-7.24,2.8-11.18c1.36-3.95,2.96-7.81,4.22-10.68c0.59-1.3,1.08-2.39,1.45-3.2
		c4.89-19.8,7.09-65.06-10.33-86.5c-0.08,5.09-1.45,10.96-4.13,17.43c-0.06,0.13-0.12,0.27-0.18,0.41
		c-1.94,4.17-7.62,11.76-6.58,16.24c1.04,4.48,9.16,7.84,12.81,10.64c1.74,1.33,3.16,2.62,4.21,3.78c0.95,1.01,1.58,1.97,1.83,2.75
		c0.13,0.39,0.06,0.78-0.08,0.94c-0.13,0.16-0.23,0.19-0.22,0.19c0,0,0.26-0.42-0.25-0.82c-0.44-0.43-1.38-0.81-2.53-1.28
		c-2.36-0.88-5.88-1.85-10.07-2.92c-4.19-1.04-9.09-2.21-14.19-3.07c-2.54-0.42-5.16-0.74-7.52-0.79c-1.17-0.02-2.28,0.1-3,0.25
		c-0.28,0.06-0.45,0.12-0.54,0.17l-0.68,0.64c-2.76,2.39-5.35,4.03-8.04,5.57c-2.66,1.52-5.34,2.82-7.98,3.95
		c-5.28,2.27-10.43,3.84-15.01,4.7c-0.77,0.15-1.52,0.26-2.26,0.37c4.6,3.19,9.43,10.02,9.18,12.83
		c-4.84-3.22-14.95-6.98-22.73-7.26c-1.72,1.51-3.46,2.92-5.1,4.15c-2.8,2.12-5.54,4.08-8.33,5.82c-3.54,2.22-7.12,4.1-10.69,5.41
		c-2.32,2.96-3.86,6.35-2.85,9.63c1.31,0.73,2.64,1.51,4,2.35c1.48,0.89,2.95,1.88,4.45,2.89c1.46,1.05,2.95,2.13,4.35,3.3
		c1.42,1.17,2.77,2.42,4.03,3.76c1.26,1.3,2.4,2.79,3.4,4.26c0.95,1.58,1.79,3.13,2.23,4.89c0.24,0.82,0.34,1.76,0.39,2.56
		c-0.06,0.88-0.03,1.65-0.31,2.38c-0.11,0.35-0.22,0.69-0.33,1.01c-0.16,0.31-0.32,0.59-0.49,0.84c-0.3,0.53-0.67,0.93-1.02,1.25
		c-0.62,0.7-1.31,0.98-1.71,1.22c-0.41,0.22-0.64,0.31-0.64,0.31s0.05-0.24,0.15-0.7c0.11-0.43,0.25-1.06,0.26-1.8
		c0.04-0.36,0.04-0.74-0.08-1.14c-0.04-0.19-0.08-0.38-0.11-0.57c-0.08-0.18-0.16-0.37-0.24-0.56c-0.3-0.72-0.85-1.38-1.56-2.06
		c-0.65-0.69-1.67-1.41-2.66-2.17c-1.1-0.76-2.25-1.55-3.55-2.38c-1.27-0.84-2.67-1.68-4.04-2.61c-1.43-0.89-2.83-1.89-4.3-2.87
		c-1.42-1.03-2.88-2.06-4.27-3.18c-1.4-1.09-2.76-2.26-4.03-3.46c-1.28-1.21-2.47-2.46-3.55-3.76c-1.07-1.28-2.01-2.63-2.78-3.97
		c-0.12-0.2-0.19-0.4-0.29-0.6c-1.04-0.65-2.1-1.22-3.34-1.55c-0.59,0.22-1.2,0.47-1.87,0.77c-2,0.92-4.26,2.34-6.63,4.22
		c-2.34,1.92-4.77,4.34-7.12,7.21c-2.36,2.85-4.65,6.19-6.7,9.86c-1.53,2.75-2.95,5.71-4.1,8.8l0.53,0.72l-1.06,2.78
		c-0.68,1.78-1.34,3.88-1.96,6.17c-0.29,2.32-0.53,4.75-0.75,7.2c-0.38,4.95-0.66,10.02-0.68,15.05c-0.07,5.03,0.12,10.05,0.62,14.8
		c0.29,2.36,0.63,4.68,1.14,6.81c0.52,2.12,1.22,4.08,2.03,5.48c1.55,2.63,3.04,2.16,5.69,1.7c0.46-0.13,0.91-0.25,1.37-0.38
		c3.67-1.17,7.17-3.21,10.44-5.22c3.27-2.03,6.39-4.02,9.41-5.52c2.99-1.54,6.05-2.37,8.57-2.33c2.56,0.04,4.35,0.95,5.4,1.6
		c0.56,0.3,0.91,0.65,1.16,0.84c0.25,0.2,0.38,0.3,0.38,0.3s-0.16-0.05-0.46-0.16c-0.31-0.1-0.74-0.28-1.33-0.42
		c-1.15-0.33-2.92-0.51-4.94-0.05c-2.04,0.51-4.24,1.82-6.61,3.69c-2.38,1.89-4.87,4.38-7.87,7.03c-3.01,2.63-6.49,5.56-11.16,7.76
		c-0.59,0.26-1.18,0.52-1.81,0.77c-0.64,0.23-1.45,0.51-1.99,0.66l-0.83,0.24l-0.21,0.06l-0.05,0.01l-0.21,0.05l-0.15,0.03
		l-0.63,0.12c-0.85,0.15-1.78,0.21-2.73,0.15c-0.44-0.02-0.88-0.08-1.32-0.16c0.95,7.51-0.02,14.99-0.92,21.83
		c-1.24,9.48-2.32,17.79,1.41,24.38c0.6-0.39,1.2-0.74,1.8-1.1c3.74-2.19,7.38-3.76,10.91-5.27c7.07-2.93,13.71-5.19,19.39-7.13
		c5.67-1.95,10.4-3.51,13.53-4.93c1.56-0.71,2.75-1.35,3.39-1.98c0.68-0.6,0.7-1.16,0.7-1.16c-0.03-0.03,0.24,0.55-0.24,1.49
		c-0.45,0.91-1.4,2.07-2.76,3.29c-2.71,2.46-6.95,5.41-12.16,8.55c-2.6,1.58-5.45,3.21-8.45,4.89c-2.99,1.66-6.14,3.41-9.4,5.23
		c-3.21,1.78-6.52,3.68-9.48,5.67c-1.42,0.96-2.88,2.13-3.4,2.8c-0.96,1.18-1.61,2.39-1.84,3.23c-0.22,0.88-0.16,1.28,0.15,2.04
		c0.31,0.75,1.12,1.76,2.23,2.71c2.2,1.94,5.44,3.69,8.41,5.09c2.22,1.06,5.52,1.48,8.63,1.6c3.15,0.11,6.28-0.05,9.18-0.25
		c2.91-0.22,5.62-0.49,8.03-0.77c2.43-0.27,4.55-0.51,6.3-0.71c3.51-0.44,5.58-0.62,5.58-0.62s-1.7,1.18-4.87,2.87
		c-3.16,1.73-7.78,3.95-13.74,5.86c-2.99,0.93-6.3,1.81-10.03,2.28c-1.87,0.23-3.84,0.39-5.94,0.31c-0.03,0-0.06,0-0.09-0.01
		c-1.79,3.44-3.12,8.32-1.74,14.56c-3.26-5.31-4.81-11.65-5.39-16.59c-2.14-4-4.66-3.84-7.2-4.02c-5.08,15.97,2.38,22.21,2.66,22.42
		l2.35,1.71l-0.11,2.9c-0.36,9.31,4.78,16.7,9.8,18.93c2.75,1.22,9.49,3.52,12.55-1.54l0.49-0.81c-0.47-0.78-0.93-1.61-1.37-2.54
		c-1.29-2.76-2.4-6.13-3.03-9.93c-0.29-1.92-0.5-3.93-0.34-6.15c0.08-1.12,0.22-2.28,0.68-3.6c0.24-0.66,0.54-1.36,1.07-2.11
		c0.52-0.73,1.33-1.54,2.43-2.04c0.55-0.25,1.13-0.4,1.71-0.48c0.32-0.04,0.77-0.04,0.99-0.03l0.18,0.01l0.09,0.01l0.29,0.02
		l1.33,0.08c0.89,0.09,1.75,0.13,2.59,0.13c0.84,0.06,1.68,0.03,2.5-0.01c0.82,0.01,1.66-0.07,2.47-0.14
		c0.82-0.04,1.65-0.11,2.47-0.23c0.82-0.1,1.62-0.12,2.42-0.25c1.6-0.21,3.13-0.31,4.57-0.47c2.87-0.25,5.34-0.33,7.09-0.32
		c1.74-0.01,2.78,0.12,2.78,0.12s-0.82,0.64-2.3,1.55c-1.48,0.94-3.62,2.15-6.33,3.36c-1.33,0.63-2.86,1.17-4.46,1.75
		c-1.65,0.51-3.38,1.05-5.32,1.36c-1.9,0.36-4,0.51-6.09,0.43c-1.05-0.04-2.1-0.17-3.1-0.33l-0.98-0.25
		c-0.05,0.06-0.09,0.14-0.13,0.25c-0.22,0.47-0.43,1.19-0.58,1.95c-0.29,1.54-0.39,3.26-0.4,4.93c-0.03,3.37,0.28,6.62,0.71,9.35
		c0.1,0.67,0.22,1.31,0.35,1.91l1.4-0.12c26.11-2.34,39.29-16.97,44.25-26.2c-1.35-1.18-2.63-2.83-3.26-5.63
		c-0.07,0-0.12-0.01-0.12-0.01s0.03-0.08,0.07-0.21c-0.03-0.12-0.06-0.22-0.08-0.35l0.21-0.04c0.12-0.31,0.26-0.76,0.46-1.22
		c0.1-0.25,0.2-0.53,0.32-0.83c0.07-0.35,0.18-0.67,0.26-1.03c0.18-0.71,0.43-1.38,0.56-2.24c0.17-0.81,0.38-1.59,0.52-2.52
		c0.07-0.45,0.19-0.88,0.29-1.32c0.05-0.49,0.17-0.95,0.25-1.42c0.23-0.92,0.36-1.95,0.6-2.93c0.24-0.99,0.42-2.05,0.71-3.05
		c0.21-1.05,0.53-2.07,0.79-3.11c0.28-1.04,0.6-2.05,0.91-3.05c0.33-1,0.66-1.97,1.01-2.91c0.12-0.31,0.24-0.58,0.35-0.88
		c-0.16-1.15-0.37-2.18-0.69-3.06c-0.18,0.03-0.35,0.06-0.51,0.08c-1.83,0.27-3.64,0.42-5.41,0.54c-3.55,0.21-6.97,0.18-10.23,0.01
		c-6.52-0.32-12.41-1.07-17.36-1.54c-4.94-0.49-8.97-0.65-11.51,0.12c-1.24,0.41-2.14,1.04-2.61,1.65
		c-0.49,0.61-0.68,1.03-0.68,1.03s0-0.11-0.02-0.33c-0.01-0.22-0.02-0.55,0.07-0.98c0.13-0.85,0.68-2.21,1.98-3.39
		c1.27-1.22,3.11-2.23,5.25-3.03c2.14-0.79,4.58-1.4,7.22-1.87c5.27-0.95,11.33-1.37,17.61-1.76c3.14-0.21,6.33-0.39,9.48-0.68
		c1.58-0.13,3.13-0.33,4.67-0.54c0.82-0.12,1.39-0.19,2.29-0.36c0.65-0.12,1.24-0.25,1.86-0.45c2.48-0.7,4.93-2.07,7.24-3.74
		c2.29-1.71,4.42-3.74,6.27-5.92c3.73-4.36,6.49-9.23,7.98-13.64c0.05-0.14,0.08-0.28,0.13-0.42c-3.16-6.18-12.45-10.13-13.99-21.84
		c7.42,7.68,14.01,5.78,20.04,1.72c5.22-3.52,3.33-6.99,3.44-10.8c0.25-9.45,10.73-10.38,17.57-22.59
		c1.6-2.86,3.89-11.91,6.58-14.04c2.67-2.13,3.1-1.89,6.7-2.89c5.7-1.59,11.9-0.07,17.41,1.54c1.23,0.36,2.37,0.7,3.42,1.01
		c0.76-6.06,0.96-10.02,0.97-10.21C377.91,276.62,374.4,271.91,371,267.36 M242.58,442.73l-0.04,0.11c0.11-0.01,0.21-0.05,0.32-0.1
		c0.04-0.03,0.05-0.04,0.08-0.06l-0.52-0.13h-0.02C242.48,442.56,242.18,442.69,242.58,442.73 M295.41,426.85
		c-0.23-0.03-0.47,0.13-0.67,0.14C294.91,426.99,295.14,426.93,295.41,426.85"/>
</g>
</svg>
